<svg id="Layer_1" data-name="Layer 1" xmlns="http://www.w3.org/2000/svg" viewBox="0 0 532.75 89.95"><defs><style>.cls-1{fill:#fff;}.cls-2{fill:#ed1c24;}</style></defs><title>ExploreMore</title><path class="cls-1" d="M53.07,390.94V413.4H83.75v13.25H53.07V450H87.43v13.86H35.77V377.2H87.43v13.74Z" transform="translate(-35.77 -375.97)"/><path class="cls-1" d="M151.12,463.83,131.6,434.26l-17.3,29.57H94.55l27.24-44.3-28-42.33H114.3l19.15,29,17.05-29h19.76l-27.12,43.56,28.47,43.07Z" transform="translate(-35.77 -375.97)"/><path class="cls-1" d="M198.24,431.68v32.15H180.93V377.2h31.54q15.35,0,23.13,7.36t7.8,20q0,12.4-8,19.76t-22.89,7.36Zm27.61-27.12q0-6.49-3.56-9.94t-11.66-3.43H198.24v26.63h12.39Q225.84,417.82,225.85,404.56Z" transform="translate(-35.77 -375.97)"/><path class="cls-1" d="M272,450.58h29.08v13.25H254.69V377.2H272Z" transform="translate(-35.77 -375.97)"/><path class="cls-2" d="M407.82,381.61a41,41,0,0,1,15.59,15.77,48.93,48.93,0,0,1,0,45.84,40.83,40.83,0,0,1-15.59,15.83,45.83,45.83,0,0,1-44.05,0,40.74,40.74,0,0,1-15.58-15.83,48.86,48.86,0,0,1,0-45.84,40.92,40.92,0,0,1,15.58-15.77,45.83,45.83,0,0,1,44.05,0Zm-35.4,13.75a23.52,23.52,0,0,0-9,9.88,36.38,36.38,0,0,0,0,30.06,23.52,23.52,0,0,0,9,9.88,27.72,27.72,0,0,0,26.75,0,23.46,23.46,0,0,0,9-9.88,36.38,36.38,0,0,0,0-30.06,23.46,23.46,0,0,0-9-9.88,27.72,27.72,0,0,0-26.75,0Zm5.49-12.52a41,41,0,0,1,15.58,15.77,48.84,48.84,0,0,1,0,45.83,40.74,40.74,0,0,1-15.58,15.83,45.77,45.77,0,0,1-44.06,0,40.68,40.68,0,0,1-15.58-15.83,48.84,48.84,0,0,1,0-45.83,40.92,40.92,0,0,1,15.58-15.77,45.84,45.84,0,0,1,44.06,0ZM342.5,396.59a23.56,23.56,0,0,0-9,9.87,36.4,36.4,0,0,0,0,30.07,23.58,23.58,0,0,0,9,9.88,27.79,27.79,0,0,0,26.75,0,23.52,23.52,0,0,0,9-9.88,36.4,36.4,0,0,0,0-30.07,23.49,23.49,0,0,0-9-9.87,27.72,27.72,0,0,0-26.75,0Z" transform="translate(-35.77 -375.97)"/><path class="cls-1" d="M486.42,463.83l-20.24-33.74h-7.61v33.74H441.26V377.2h33q15.11,0,23,7.36T505.2,404q0,9.82-5.46,16.44T484,429.23l21.6,34.6Zm-27.85-45.65H472.8q14.85,0,14.85-13.13,0-6.26-3.62-9.75t-11.23-3.5H458.57Z" transform="translate(-35.77 -375.97)"/><path class="cls-1" d="M534.16,390.94V413.4h30.68v13.25H534.16V450h34.36v13.86H516.86V377.2h51.66v13.74Z" transform="translate(-35.77 -375.97)"/></svg>